<?xml version="1.0" standalone="no"?>
<!DOCTYPE svg PUBLIC "-//W3C//DTD SVG 20010904//EN"
 "http://www.w3.org/TR/2001/REC-SVG-20010904/DTD/svg10.dtd">
<svg version="1.0" xmlns="http://www.w3.org/2000/svg"
 width="192.000000pt" height="192.000000pt" viewBox="0 0 192.000000 192.000000"
 preserveAspectRatio="xMidYMid meet">

<g transform="translate(0.000000,192.000000) scale(0.100000,-0.100000)"
fill="#000000" stroke="none">
<path d="M938 1899 c-15 -8 -18 -24 -18 -80 0 -47 -5 -78 -16 -94 -8 -13 -15
-41 -14 -62 3 -60 2 -63 -28 -63 -73 0 -256 -80 -319 -140 -18 -16 -36 -30
-40 -30 -4 0 -21 11 -37 25 -16 14 -38 25 -50 25 -11 0 -40 19 -63 42 -36 35
-47 41 -61 32 -31 -20 -25 -49 18 -87 22 -20 40 -46 40 -57 0 -12 13 -34 30
-50 16 -16 30 -33 30 -38 0 -5 -13 -35 -29 -67 -26 -52 -48 -119 -66 -207 -5
-27 -7 -28 -75 -28 -50 0 -71 -4 -77 -15 -6 -10 -31 -15 -83 -17 -74 -3 -75
-4 -78 -30 l-3 -28 78 0 c67 0 80 -3 91 -20 10 -17 23 -20 81 -20 l68 0 7 -51
c11 -84 42 -155 126 -286 13 -20 12 -25 -13 -51 -15 -15 -27 -39 -27 -53 0
-14 -16 -47 -36 -72 -36 -46 -36 -48 -19 -67 26 -29 36 -25 79 29 22 27 45 47
51 44 7 -2 27 11 44 29 l31 33 27 -18 c56 -37 175 -88 228 -99 l55 -11 0 -63
c0 -34 5 -66 10 -69 6 -3 10 -32 10 -63 0 -94 16 -121 61 -107 16 5 19 17 19
79 0 52 4 77 15 86 9 7 15 35 17 73 l3 62 51 6 c95 12 234 69 289 120 20 18
21 18 54 -13 18 -17 44 -32 57 -34 14 -1 41 -18 62 -38 40 -40 66 -45 81 -18
8 16 2 27 -34 63 -30 29 -43 50 -39 61 3 12 -7 29 -32 52 l-37 34 26 31 c49
59 117 229 117 293 0 16 9 18 70 18 59 0 72 3 82 20 11 17 24 20 91 20 l78 0
-3 28 c-3 26 -4 27 -78 30 -52 2 -77 7 -83 17 -6 11 -28 15 -81 15 l-73 0 -7
49 c-9 68 -41 156 -80 222 -29 49 -32 58 -20 74 8 10 14 26 14 35 0 9 18 34
40 55 44 43 50 69 21 84 -15 8 -28 2 -70 -34 -28 -24 -58 -42 -65 -39 -7 3
-18 -2 -25 -10 -11 -13 -20 -10 -64 23 -83 62 -185 106 -269 117 -34 5 -48 11
-49 23 -1 9 -2 35 -3 59 -2 23 -8 48 -14 54 -7 7 -12 42 -12 85 0 61 -3 74
-19 83 -23 12 -22 12 -43 -1z m-215 -847 c41 -26 43 -30 31 -47 -19 -25 -18
-80 2 -99 35 -36 77 -9 78 50 1 24 5 33 14 29 8 -3 20 -5 28 -5 19 0 18 -44
-2 -86 -19 -39 -59 -64 -102 -64 -81 0 -147 133 -112 224 5 14 12 26 14 26 3
0 25 -13 49 -28z m537 -54 c0 -142 -111 -219 -195 -135 -20 20 -36 48 -40 71
-8 42 -9 41 28 50 25 6 27 4 27 -28 0 -38 21 -66 49 -66 40 0 62 66 36 106
-19 29 -19 29 32 60 35 21 39 22 51 7 6 -9 12 -39 12 -65z m-880 -22 c0 -13
-13 -16 -70 -16 -38 0 -73 0 -77 -1 -5 0 -9 6 -11 14 -2 11 14 15 78 16 66 2
80 -1 80 -13z m-195 -5 c12 -1 16 -4 9 -9 -15 -9 -154 -3 -154 8 0 4 28 6 63
4 34 -1 71 -3 82 -3z m466 -238 c27 -14 47 -28 45 -30 -6 -7 -92 33 -100 46
-11 17 2 13 55 -16z m689 -6 c0 -18 -6 -41 -12 -50 -15 -20 -110 -39 -170 -35
l-42 3 64 41 c134 86 160 93 160 41z"/>
</g>
</svg>
