<?xml version="1.0" standalone="no"?>
<!DOCTYPE svg PUBLIC "-//W3C//DTD SVG 20010904//EN"
 "http://www.w3.org/TR/2001/REC-SVG-20010904/DTD/svg10.dtd">
<svg version="1.0" xmlns="http://www.w3.org/2000/svg"
 width="512.000000pt" height="512.000000pt" viewBox="0 0 512.000000 512.000000"
 preserveAspectRatio="xMidYMid meet">

<g transform="translate(0.000000,512.000000) scale(0.100000,-0.100000)"
fill="#000000" stroke="none">
<path d="M2495 5070 c-16 -11 -33 -31 -37 -46 -4 -14 -5 -102 -2 -195 l4 -168
-30 -16 c-16 -8 -34 -24 -40 -34 -5 -11 -10 -87 -10 -173 l0 -153 -132 -23
c-318 -57 -594 -190 -840 -404 -36 -32 -68 -58 -70 -58 -2 0 -38 32 -79 70
-85 81 -108 94 -161 85 -38 -7 -40 -6 -148 99 -128 123 -141 127 -201 67 -62
-61 -56 -81 50 -185 49 -48 98 -94 110 -102 17 -13 21 -25 21 -74 l0 -58 94
-89 93 -88 -24 -35 c-40 -58 -149 -290 -176 -375 -37 -114 -67 -249 -74 -328
l-6 -69 -186 3 -186 4 -24 -38 -24 -37 -193 0 -194 0 -16 -25 c-12 -18 -15
-39 -12 -75 8 -81 4 -80 223 -80 l192 0 14 -27 c7 -16 24 -38 37 -50 22 -22
30 -23 198 -23 l174 0 0 -25 c0 -14 9 -67 21 -118 11 -50 22 -101 24 -112 6
-45 70 -216 113 -305 45 -92 136 -238 206 -331 l35 -45 -74 -95 c-77 -96 -90
-133 -66 -178 8 -14 -2 -32 -47 -87 -125 -154 -144 -183 -138 -207 12 -48 63
-87 114 -87 23 0 38 10 68 48 21 26 41 49 44 52 3 3 30 37 61 75 56 70 57 71
99 67 40 -4 44 -2 91 49 28 30 60 69 72 86 12 18 27 33 32 33 6 0 26 -13 45
-28 154 -124 423 -242 673 -293 l107 -22 0 -174 0 -174 30 -17 30 -17 0 -188
c0 -104 4 -197 10 -207 22 -41 123 -52 176 -19 l34 21 0 199 c0 160 3 199 13
199 8 0 21 8 30 18 14 15 17 47 19 183 l3 164 75 7 c200 20 459 99 630 191 57
31 221 135 230 146 3 3 15 15 28 25 l23 20 82 -82 c88 -86 115 -102 162 -92
27 5 40 -3 145 -102 125 -117 144 -126 195 -86 35 27 59 82 46 106 -5 9 -57
64 -115 121 -58 58 -103 108 -100 113 3 4 6 27 6 49 0 39 -5 47 -88 130 l-88
88 20 23 c10 13 22 25 25 28 13 10 127 196 156 255 58 114 124 293 138 373 3
18 12 64 20 103 8 39 15 81 15 95 l0 24 184 0 c154 0 185 2 190 15 3 8 11 15
19 15 7 0 19 16 26 35 l12 35 192 0 c106 0 199 5 207 10 11 7 15 28 15 80 0
52 -4 73 -15 80 -8 5 -101 10 -206 10 l-191 0 -24 37 -24 37 -186 -3 -187 -3
-12 74 c-46 280 -130 507 -265 715 l-53 81 44 47 c36 39 44 55 44 86 0 20 -5
39 -11 41 -6 2 42 55 105 118 83 81 116 121 116 137 0 56 -56 113 -110 113
-14 0 -62 -39 -132 -107 l-110 -108 -50 3 c-46 4 -53 1 -89 -34 l-38 -37 -73
57 c-99 78 -224 159 -316 205 -75 37 -281 115 -332 125 -14 3 -78 15 -142 28
l-118 23 0 153 c0 86 -5 162 -10 173 -6 10 -24 26 -40 34 l-30 16 0 198 0 199
-34 16 c-46 21 -95 20 -131 -4z m-602 -2244 c45 -29 102 -64 126 -76 l45 -22
-27 -20 c-77 -56 -94 -203 -32 -284 81 -107 225 -31 225 119 0 31 -5 68 -10
82 -9 24 -8 26 7 20 10 -4 50 -17 88 -28 39 -12 72 -22 74 -23 9 -7 -32 -165
-56 -212 -74 -147 -246 -213 -381 -146 -89 44 -165 149 -197 271 -18 67 -20
221 -4 278 11 38 44 95 56 95 3 0 42 -24 86 -54z m1434 15 c70 -103 49 -342
-43 -481 -39 -60 -106 -118 -156 -137 -83 -30 -194 -9 -274 52 -65 50 -134
199 -134 292 0 29 3 33 38 39 20 4 58 15 85 25 l47 19 -7 -28 c-5 -15 -8 -52
-7 -83 0 -66 24 -113 74 -146 48 -33 83 -29 128 12 85 76 81 227 -7 296 l-31
25 52 27 c29 16 85 50 123 76 39 27 75 48 80 47 6 -2 20 -17 32 -35z m-2312
-211 c2 -8 6 -31 9 -50 l5 -35 -217 3 c-119 2 -218 5 -219 6 -2 1 -6 22 -9 47
l-6 44 216 0 c184 0 217 -2 221 -15z m-477 -58 l3 -30 -219 -1 -220 -2 -4 31
c-3 16 -3 31 -2 33 1 1 101 1 221 0 l218 -1 3 -30z m1147 -588 c76 -37 246
-143 229 -144 -5 0 -64 23 -130 51 -116 50 -232 116 -233 132 -1 15 61 -4 134
-39z m1875 31 c19 -22 24 -91 10 -139 -19 -70 -59 -110 -127 -129 -77 -22
-266 -39 -383 -35 l-95 3 50 30 c28 16 111 69 185 118 144 95 212 133 275 153
53 17 70 17 85 -1z m-1990 -480 c7 -8 8 -15 2 -15 -5 0 -15 7 -22 15 -7 8 -8
15 -2 15 5 0 15 -7 22 -15z m-75 -95 c3 -6 -1 -7 -9 -4 -18 7 -21 14 -7 14 6
0 13 -4 16 -10z m-155 -195 c7 -8 8 -15 2 -15 -5 0 -15 7 -22 15 -7 8 -8 15
-2 15 5 0 15 -7 22 -15z m-50 -55 c0 -5 -4 -10 -10 -10 -5 0 -10 5 -10 10 0 6
5 10 10 10 6 0 10 -4 10 -10z m-37 -35 c-3 -9 -8 -14 -10 -11 -3 3 -2 9 2 15
9 16 15 13 8 -4z m-52 -72 c-12 -20 -14 -14 -5 12 4 9 9 14 11 11 3 -2 0 -13
-6 -23z m-31 -37 c0 -2 -8 -10 -17 -17 -16 -13 -17 -12 -4 4 13 16 21 21 21
13z m-70 -86 c0 -5 -5 -10 -11 -10 -5 0 -7 5 -4 10 3 6 8 10 11 10 2 0 4 -4 4
-10z"/>
<path d="M703 2563 c53 -2 141 -2 195 0 53 1 9 3 -98 3 -107 0 -151 -2 -97 -3z"/>
</g>
</svg>
